<?xml version="1.0" encoding="UTF-8"?>
<svg id="Ebene_1" data-name="Ebene 1" xmlns="http://www.w3.org/2000/svg" viewBox="0 0 120 120">
  <defs>
    <style>
      .cls-1 {
        fill: #a5d8ff;
      }

      .cls-2 {
        fill: #1879da;
      }
    </style>
  </defs>
  <path class="cls-2" d="M110.34,25.21L62.78,.4,15.21,22.57,2,75.42l31.71,39.64h54.76l30.53-39.64-8.66-50.21Zm-20.06,42.6l.24,19.5H35.03v-19.71h-5.28v9.14l-15.85-15.85,15.85-15.85v9.14h5.28V31.82h55.17v22.57h5.28v-9.14l15.85,15.85-15.85,15.85v-9.14h-5.21Z"/>
  <polygon class="cls-2" points="80.65 49.35 80.65 72.66 64.7 80.02 64.7 56.71 80.65 49.35"/>
  <polygon class="cls-1" points="79.42 48.12 63.47 55.48 47.52 48.12 63.47 43.21 79.42 48.12"/>
  <polygon class="cls-2" points="46.29 49.35 62.24 56.71 62.24 80.02 46.29 72.66 46.29 49.35"/>
</svg>